<svg xmlns="http://www.w3.org/2000/svg" xmlns:xlink="http://www.w3.org/1999/xlink" id="Layer_1" x="0px" y="0px" viewBox="0 0 5.38 3.97" style="enable-background:new 0 0 5.38 3.97;" xml:space="preserve">
<style type="text/css">
	.st0{fill:#F4DBA8;}
</style>
<g>
	<path class="st0" d="M4.16,0.03c0.12,0,0.23-0.04,0.35-0.02c0.15,0.01,0.32,0.04,0.41,0.17c0.05,0.05,0.06,0.13,0.05,0.2   c0.02,0,0.06,0,0.08-0.01C5.19,0.52,5.27,0.71,5.34,0.9c0.05,0.13,0.04,0.27,0.03,0.4C5.36,1.46,5.36,1.62,5.32,1.77   C5.26,1.99,5.19,2.2,5.09,2.4C5.03,2.52,4.97,2.63,4.91,2.75c-0.08,0.16-0.2,0.3-0.31,0.44C4.42,3.4,4.21,3.6,3.93,3.68   C3.71,3.75,3.5,3.87,3.27,3.9c-0.3,0.07-0.61,0.09-0.92,0.04C2.17,3.91,2.01,3.84,1.84,3.8C1.52,3.71,1.26,3.49,1,3.28   C0.84,3.16,0.73,2.98,0.6,2.83c-0.2-0.24-0.36-0.51-0.47-0.8C0.08,1.81-0.03,1.59,0.01,1.37c0.04-0.21,0.1-0.42,0.22-0.6   c0.02,0,0.07-0.01,0.09-0.02C0.26,0.62,0.35,0.49,0.46,0.42c0.2-0.11,0.43-0.14,0.65-0.14c0.29-0.07,0.61-0.07,0.9,0.02   c0.07,0.02,0.15-0.01,0.22,0.01C2.41,0.37,2.57,0.47,2.75,0.5c0.14-0.07,0.27-0.17,0.41-0.25C3.23,0.2,3.32,0.22,3.39,0.19   C3.62,0.05,3.9,0.01,4.16,0.03z M4,0.12c0.05,0.08,0.11,0.17,0.18,0.24c0.02,0,0.07,0,0.1,0.01c-0.07,0.04-0.05,0.1-0.01,0.16   C4.31,0.5,4.35,0.48,4.39,0.45c-0.06-0.09-0.11-0.2-0.19-0.27C4.14,0.14,4.07,0.14,4,0.12z M4.26,0.13   c0.05,0.1,0.12,0.19,0.18,0.28C4.45,0.4,4.47,0.38,4.49,0.37C4.44,0.27,4.37,0.17,4.26,0.13z M4.4,0.12   c0.07,0.11,0.16,0.21,0.23,0.32c-0.04,0.06-0.11,0-0.16-0.01c0,0.05,0.01,0.1,0.02,0.15C4.46,0.56,4.43,0.53,4.4,0.51   C4.37,0.53,4.34,0.54,4.31,0.56c0.01,0.05,0.02,0.11,0.01,0.16c0.15-0.08,0.31-0.15,0.46-0.23c0.07-0.03,0.1-0.12,0.06-0.18   C4.8,0.21,4.7,0.16,4.6,0.13C4.66,0.2,4.75,0.28,4.73,0.39C4.6,0.32,4.55,0.15,4.4,0.12z M3.76,0.18c0.08,0.1,0.16,0.21,0.25,0.31   C4.05,0.46,4.09,0.43,4.13,0.4C4.06,0.31,3.98,0.22,3.9,0.15C3.85,0.16,3.81,0.17,3.76,0.18z M3.39,0.32   c0.01,0.06,0.06,0.1,0.09,0.14C3.52,0.45,3.56,0.43,3.6,0.42C3.53,0.49,3.43,0.51,3.34,0.55C3.37,0.52,3.39,0.5,3.42,0.47   c-0.05-0.05-0.1-0.1-0.15-0.15c-0.06,0.03-0.12,0.07-0.17,0.1c0.06,0.06,0.13,0.12,0.22,0.15C3.27,0.6,3.23,0.61,3.19,0.63   C3.17,0.54,3.1,0.48,3.01,0.47C2.95,0.49,2.89,0.54,2.84,0.58C2.92,0.65,3,0.72,3.04,0.82c-0.13-0.03-0.18-0.2-0.33-0.18   c0.04,0.07,0.09,0.14,0.16,0.19c0.01,0.05,0.03,0.1,0.04,0.16C2.82,0.9,2.76,0.8,2.67,0.71c-0.04,0.03-0.09,0.07-0.13,0.1   C2.53,0.81,2.5,0.8,2.49,0.79C2.42,0.85,2.37,0.92,2.3,0.97c0.08,0.04,0.16,0.1,0.21,0.18c-0.08,0-0.13-0.06-0.2-0.09   c-0.04-0.01-0.09,0-0.14,0c0.01,0.13,0.18,0.12,0.21,0.23c-0.1-0.02-0.2-0.07-0.28-0.15C2.08,1.17,2.06,1.2,2.03,1.24   c0.09,0.11,0.26,0.14,0.32,0.27C2.23,1.47,2.13,1.39,2.01,1.32C1.99,1.35,1.96,1.38,1.94,1.42C2.02,1.54,2.22,1.55,2.28,1.7   C2.15,1.65,2.02,1.58,1.9,1.51c-0.01,0.05-0.02,0.1-0.03,0.14c0.05,0.06,0.09,0.11,0.14,0.17C1.99,1.85,1.97,1.88,1.95,1.91   c0.07,0.04,0.14,0.08,0.18,0.15C2.01,2.02,1.9,1.93,1.77,1.9C1.76,1.91,1.73,1.93,1.71,1.94c0.09,0.1,0.24,0.11,0.33,0.2   c-0.13,0-0.24-0.07-0.37-0.1C1.65,2.06,1.64,2.1,1.62,2.13c0.08,0.03,0.17,0.07,0.25,0.1C1.84,2.31,1.79,2.4,1.76,2.49   C1.78,2.52,1.8,2.54,1.82,2.57c-0.03,0-0.06,0.01-0.09,0.01C1.73,2.63,1.7,2.67,1.71,2.72c0.02,0.03,0.05,0.05,0.07,0.08   c0.02-0.01,0.06-0.04,0.07-0.06c0.02,0.05,0.04,0.1,0.06,0.15c-0.02,0-0.05,0-0.07,0c0,0.06-0.01,0.13-0.01,0.19   c0.02,0,0.05-0.01,0.07-0.01C2.04,2.99,2.1,2.85,2.18,2.74C2.17,2.83,2.16,2.92,2.11,3c-0.05,0.08-0.14,0.12-0.2,0.18   C1.9,3.27,2,3.21,2.03,3.17C2.19,3.01,2.3,2.82,2.43,2.63c0.16-0.22,0.21-0.5,0.35-0.73C2.74,1.89,2.7,1.88,2.66,1.86   C2.68,1.84,2.7,1.82,2.72,1.8c0.03,0.01,0.08,0.04,0.1,0.05c0.02-0.03,0.04-0.07,0.05-0.1c-0.05-0.02-0.09-0.1-0.14-0.06   C2.6,1.84,2.53,2.03,2.4,2.18c0.07-0.19,0.23-0.33,0.27-0.53c-0.03,0.03-0.06,0.06-0.08,0.1C2.45,1.97,2.33,2.2,2.23,2.44   C2.26,2.21,2.4,2.02,2.49,1.81C2.4,1.89,2.33,1.98,2.28,2.07c-0.04,0.07-0.04,0.17-0.13,0.2c0.03-0.14,0.11-0.26,0.2-0.36   c0.08-0.08,0.13-0.19,0.22-0.27c0.1-0.04,0.18-0.13,0.26-0.21C2.77,1.39,2.68,1.35,2.73,1.27c0.06,0.02,0.1,0.06,0.14,0.1   C2.98,1.28,3.09,1.19,3.19,1.1C3.12,1.07,3.07,1.03,3.06,0.95C3.2,0.97,3.28,1.1,3.39,1.18c0.17-0.1,0.35-0.19,0.52-0.3   c0-0.02,0-0.05,0-0.07C3.74,0.88,3.59,1,3.43,1.09c0.08-0.1,0.19-0.16,0.28-0.25c-0.15,0.05-0.26,0.17-0.4,0.22   C3.39,0.9,3.58,0.87,3.7,0.76c0.06-0.1,0.17-0.16,0.26-0.24C3.93,0.47,3.89,0.41,3.85,0.36C3.81,0.37,3.76,0.38,3.72,0.39   c0.03-0.02,0.06-0.05,0.09-0.07c-0.06-0.04-0.11-0.08-0.17-0.1C3.55,0.22,3.47,0.28,3.39,0.32z M1.13,0.44   C1.05,0.51,1.01,0.63,0.97,0.73C1.01,0.75,1.06,0.77,1.1,0.79C1.12,0.76,1.13,0.73,1.15,0.7C1.12,0.68,1.09,0.66,1.07,0.63   c0.03,0,0.07,0,0.1,0c0.05-0.09,0.11-0.19,0.16-0.28C1.26,0.37,1.19,0.38,1.13,0.44z M1.24,0.64c0.05,0.02,0.1,0.04,0.15,0.06   C1.46,0.59,1.53,0.48,1.6,0.37c-0.05,0-0.1-0.01-0.15-0.01C1.36,0.44,1.29,0.53,1.24,0.64z M1.56,0.51   c0.03,0.01,0.08,0.03,0.11,0.03C1.62,0.55,1.58,0.55,1.53,0.56C1.5,0.62,1.47,0.67,1.44,0.73c0.1,0.06,0.21,0.1,0.31,0.17   C1.64,0.89,1.54,0.83,1.43,0.79C1.42,0.82,1.41,0.85,1.4,0.88c0.11,0,0.2,0.07,0.29,0.12c0.03-0.03,0.06-0.05,0.1-0.07   C1.87,0.99,1.97,1,2.07,1.03c0.09-0.1,0.21-0.16,0.3-0.26c0.08-0.08,0.17-0.13,0.25-0.2c-0.05-0.02-0.1-0.04-0.16-0.06   C2.38,0.55,2.29,0.61,2.3,0.71C2.25,0.7,2.19,0.69,2.14,0.67C2.23,0.63,2.3,0.56,2.36,0.49c-0.07-0.02-0.13-0.05-0.2-0.07   C2.11,0.47,2.06,0.53,2.02,0.59c0.03,0.02,0.07,0.04,0.1,0.06C2.02,0.63,1.9,0.63,1.81,0.57C1.86,0.57,1.9,0.58,1.94,0.59   C1.97,0.54,2,0.49,2.03,0.44c-0.1-0.03-0.19-0.06-0.29-0.07C1.67,0.39,1.62,0.46,1.56,0.51z M0.82,0.43   c-0.07,0.1-0.14,0.2-0.22,0.3c-0.06-0.1,0.03-0.2,0.09-0.27C0.58,0.49,0.48,0.57,0.44,0.67c-0.02,0.07,0.03,0.15,0.1,0.16   c0.18,0.06,0.36,0.1,0.54,0.15c0-0.05,0-0.1,0-0.15C1.03,0.82,0.99,0.8,0.95,0.79C0.93,0.82,0.91,0.85,0.89,0.88   C0.88,0.82,0.88,0.77,0.84,0.72C0.83,0.74,0.8,0.77,0.78,0.79C0.77,0.78,0.73,0.77,0.71,0.77c0.04-0.12,0.13-0.23,0.18-0.35   C0.87,0.42,0.83,0.43,0.82,0.43z M0.84,0.67C0.86,0.68,0.89,0.69,0.9,0.7c0.05-0.1,0.1-0.2,0.15-0.31   C0.94,0.45,0.88,0.56,0.84,0.67z M4.02,0.53c0,0.03,0.01,0.06,0.03,0.09c0.05,0.01,0.1-0.02,0.14-0.05c0-0.04-0.01-0.09-0.02-0.13   C4.12,0.48,4.06,0.5,4.02,0.53z M3.69,0.78c0.02,0.01,0.06,0.03,0.08,0.04c0.09-0.04,0.14-0.14,0.25-0.15   C4.01,0.65,3.99,0.6,3.98,0.58C3.88,0.64,3.79,0.71,3.69,0.78z M5.07,0.57c-0.13,0.2-0.38,0.27-0.6,0.34   c-0.11,0.05-0.22,0.1-0.32,0.15C3.97,1.16,3.8,1.27,3.62,1.37C3.64,1.41,3.66,1.46,3.68,1.5C3.62,1.48,3.56,1.46,3.5,1.43   C3.42,1.49,3.35,1.55,3.27,1.61C3.34,1.7,3.42,1.79,3.5,1.88C3.37,1.87,3.25,1.82,3.18,1.71C3.14,1.76,3.1,1.8,3.06,1.85   c0.06,0.04,0.12,0.08,0.18,0.13C3.23,1.99,3.22,2.01,3.21,2.02C3.13,1.99,3.07,1.94,2.99,1.92C2.98,1.93,2.96,1.96,2.95,1.97   c0.12,0.08,0.26,0.15,0.33,0.28C3.17,2.18,3.04,2.13,2.93,2.04c-0.07,0.15-0.11,0.31-0.2,0.44c0.07,0.08,0.14,0.16,0.24,0.2   c0.05,0.01,0.06,0.06,0.08,0.1C2.91,2.8,2.78,2.72,2.66,2.66C2.62,2.74,2.57,2.83,2.53,2.91c0.02,0.03,0.05,0.05,0.07,0.08   C2.56,2.99,2.51,3,2.47,3C2.38,3.12,2.3,3.24,2.21,3.35c0.01,0.01,0.04,0.04,0.05,0.05c-0.02,0-0.07,0-0.1,0   c0.13,0.13,0.31,0.22,0.5,0.23c-0.11-0.13-0.37-0.11-0.4-0.31C2.34,3.36,2.4,3.44,2.48,3.46C2.54,3.4,2.64,3.43,2.71,3.41   C2.6,3.32,2.41,3.3,2.37,3.14c0.06,0.03,0.12,0.07,0.18,0.1c0.06-0.01,0.12-0.03,0.18-0.05C2.7,3.22,2.67,3.26,2.64,3.29   c0.05,0.03,0.09,0.07,0.14,0.1C2.84,3.36,2.9,3.33,2.96,3.3C2.89,3.24,2.76,3.22,2.73,3.11c0.05,0.01,0.09,0.02,0.14,0.03   C2.95,3.07,3.03,3,3.11,2.93c0.05-0.03,0.04-0.08,0.04-0.12c0.03,0.02,0.06,0.03,0.09,0.05c0.11-0.1,0.18-0.26,0.34-0.29   C3.53,2.63,3.47,2.69,3.42,2.76c0.06,0.04,0.12,0.08,0.2,0.09C3.67,2.92,3.75,2.95,3.82,3c0.03-0.02,0.06-0.04,0.09-0.06   C3.8,2.83,3.62,2.81,3.56,2.66c0.15,0.06,0.28,0.16,0.42,0.23c0.01-0.07,0.01-0.14,0.01-0.21c0.09,0.01,0.2,0.03,0.28-0.04   C4.34,2.57,4.41,2.49,4.5,2.41c-0.07-0.05-0.15-0.1-0.23-0.13c0.02,0.09,0.1,0.14,0.11,0.23c-0.06-0.03-0.1-0.09-0.15-0.14   C4.09,2.48,3.98,2.6,3.83,2.69c0.09-0.14,0.24-0.25,0.36-0.37C4.13,2.29,4.08,2.24,4.04,2.18C4.07,2.19,4.1,2.2,4.14,2.21   c0.04-0.07,0.09-0.14,0.13-0.2C4.25,1.98,4.23,1.95,4.21,1.92c-0.02,0-0.05,0-0.07,0c0.12-0.26,0.3-0.51,0.35-0.8   C4.37,1.2,4.22,1.25,4.11,1.34C3.98,1.46,3.84,1.58,3.67,1.65c0.04-0.09,0.13-0.12,0.2-0.17C4.01,1.4,4.1,1.26,4.24,1.18   c0.11-0.06,0.21-0.15,0.34-0.18C4.57,1.07,4.56,1.13,4.55,1.19C4.57,1.2,4.61,1.23,4.64,1.24c0.01-0.06,0.02-0.11,0.04-0.16   c0.05,0.02,0.1,0.05,0.16,0.06C4.82,1.09,4.79,1.06,4.77,1.02C4.79,1,4.81,0.98,4.84,0.96c0-0.01,0-0.04,0-0.06   c0.02,0,0.06,0,0.07,0C4.9,1.02,4.96,1.11,5.05,1.17C5.11,1,5.08,0.81,5.11,0.64C5.1,0.62,5.08,0.59,5.07,0.57z M4.04,0.72   C4.01,0.75,4,0.77,4.03,0.81c0.1-0.02,0.19-0.06,0.29-0.09C4.29,0.68,4.26,0.64,4.23,0.61C4.17,0.64,4.09,0.67,4.04,0.72z    M1.21,0.69C1.21,0.74,1.2,0.78,1.19,0.82c0.05,0.04,0.11,0.03,0.17,0.04c0.01-0.03,0.02-0.08,0.02-0.1   C1.33,0.73,1.27,0.71,1.21,0.69z M5.28,1.14C5.27,1.04,5.24,0.93,5.21,0.83C5.17,0.94,5.23,1.05,5.28,1.14z M1.08,0.99   C1.2,1,1.32,1.02,1.43,1.03C1.42,0.89,1.26,0.9,1.16,0.86C1.13,0.9,1.11,0.94,1.08,0.99z M0.24,0.96C0.23,0.98,0.23,1.01,0.22,1.04   C0.27,1.22,0.3,1.39,0.37,1.56c0.04-0.05,0.09-0.1,0.11-0.17c0-0.04,0-0.09,0-0.13c0.02,0,0.05,0,0.07-0.01   C0.55,1.27,0.56,1.3,0.57,1.31c0.02,0.01,0.06,0.03,0.07,0.03c0,0.03-0.02,0.06-0.03,0.09C0.54,1.47,0.45,1.52,0.41,1.6   C0.38,1.63,0.45,1.72,0.48,1.66c0.08-0.05,0.08-0.19,0.18-0.2c0.03-0.03,0.07-0.05,0.1-0.08C0.78,1.44,0.81,1.5,0.83,1.55   c0.03-0.02,0.06-0.04,0.09-0.06C0.9,1.43,0.84,1.37,0.88,1.31C1,1.32,1.11,1.39,1.22,1.42C1.4,1.47,1.53,1.6,1.7,1.66   c0.02-0.07,0.05-0.14,0.08-0.21C1.62,1.4,1.47,1.33,1.31,1.28c-0.18-0.03-0.36-0.1-0.54-0.11C0.58,1.14,0.37,1.1,0.24,0.96z    M1.76,1c0.05,0.04,0.11,0.07,0.17,0.08C1.91,1.09,1.9,1.1,1.88,1.12c-0.11-0.04-0.22-0.1-0.33-0.09c0,0.01,0,0.04,0.01,0.05   c0.12,0.06,0.26,0.09,0.38,0.13c0.02-0.03,0.04-0.06,0.05-0.09C2,1.11,2.02,1.09,2.03,1.08C1.94,1.05,1.85,1.02,1.76,1z M4.85,1.1   c0,0.11,0.09,0.16,0.16,0.22C5.08,1.2,4.94,1.14,4.85,1.1z M2.95,1.42c0.01,0.03,0.02,0.07,0.03,0.1C2.95,1.51,2.92,1.49,2.89,1.48   C2.86,1.52,2.81,1.56,2.8,1.62c0.03,0.02,0.06,0.04,0.09,0.06c0.16-0.16,0.3-0.33,0.46-0.49C3.31,1.17,3.28,1.15,3.24,1.14   C3.14,1.23,3.05,1.33,2.95,1.42z M5.18,1.11C5.15,1.26,5.2,1.41,5.2,1.57c0,0.06,0,0.12,0.01,0.19C5.25,1.54,5.25,1.31,5.18,1.11z    M4.7,1.31C4.72,1.3,4.76,1.29,4.78,1.28c0,0.09,0.09,0.14,0.15,0.2C4.94,1.45,4.96,1.43,4.96,1.4C4.91,1.32,4.83,1.26,4.75,1.22   C4.71,1.22,4.72,1.28,4.7,1.31z M0.14,1.24c-0.02,0.1-0.02,0.21-0.02,0.32C0.17,1.46,0.2,1.34,0.14,1.24z M4.49,1.35   c0.03,0.02,0.07,0.05,0.1,0.07C4.6,1.38,4.61,1.33,4.61,1.29C4.59,1.29,4.55,1.28,4.53,1.27C4.52,1.3,4.5,1.32,4.49,1.35z    M4.62,1.42c0.08,0.07,0.15,0.14,0.24,0.2c0.01-0.04,0.02-0.07,0.02-0.11c-0.06-0.06-0.13-0.11-0.2-0.16   C4.66,1.37,4.64,1.41,4.62,1.42z M4.46,1.4C4.41,1.49,4.36,1.58,4.3,1.66c-0.03,0.07-0.06,0.14-0.1,0.2   c0.03,0.03,0.06,0.07,0.1,0.1c0.05-0.07,0.1-0.14,0.14-0.21C4.41,1.73,4.39,1.71,4.36,1.69C4.39,1.69,4.43,1.7,4.47,1.71   c0.03-0.08,0.07-0.17,0.07-0.26C4.51,1.44,4.48,1.42,4.46,1.4z M5.06,1.48c0,0.1,0.04,0.19,0.04,0.29   c0.01,0.12-0.02,0.24-0.01,0.36C5.2,1.9,5.13,1.65,5.12,1.41C5.1,1.43,5.07,1.45,5.06,1.48z M0.97,1.42   c0.12,0.28,0.35,0.5,0.54,0.73C1.54,2,1.66,1.87,1.71,1.72c-0.11-0.05-0.2-0.1-0.3-0.16C1.27,1.49,1.12,1.47,0.97,1.42z M0.32,2.17   C0.3,2.05,0.26,1.92,0.27,1.8c0-0.1-0.01-0.19-0.04-0.28C0.19,1.73,0.21,1.98,0.32,2.17z M0.51,1.75C0.49,1.78,0.53,1.82,0.56,1.83   C0.64,1.76,0.7,1.67,0.78,1.59C0.76,1.58,0.73,1.56,0.72,1.54C0.64,1.6,0.56,1.66,0.51,1.75z M4.51,1.82   C4.55,1.78,4.59,1.73,4.64,1.7C4.63,1.76,4.59,1.82,4.6,1.88C4.64,1.95,4.7,2,4.76,2.06C4.79,2,4.84,1.95,4.84,1.88   C4.8,1.82,4.74,1.76,4.7,1.7c0.03-0.02,0.06-0.04,0.09-0.05C4.72,1.6,4.65,1.56,4.59,1.51C4.56,1.61,4.47,1.71,4.51,1.82z    M0.87,1.6C0.88,1.64,0.9,1.68,0.91,1.72c0.03-0.03,0.07-0.06,0.1-0.09C0.99,1.61,0.98,1.59,0.96,1.57C0.93,1.58,0.9,1.59,0.87,1.6   z M4.97,1.85C4.95,1.93,4.94,2.04,5.02,2.1c0.01-0.16,0.01-0.33-0.01-0.49C4.99,1.69,5,1.77,4.97,1.85z M0.64,1.85   C0.6,1.89,0.66,1.93,0.67,1.97c0.07-0.08,0.14-0.16,0.21-0.24C0.86,1.71,0.84,1.7,0.82,1.68C0.75,1.73,0.69,1.79,0.64,1.85z    M0.99,1.79c0.03,0.07,0.07,0.13,0.11,0.2c0.04-0.02,0.08-0.03,0.12-0.05C1.19,1.97,1.16,2,1.13,2.02C1.2,2.08,1.26,2.14,1.33,2.2   c0.03-0.04,0.06-0.08,0.09-0.12C1.36,2.03,1.31,1.97,1.27,1.9C1.19,1.83,1.12,1.75,1.05,1.68C1.03,1.71,0.96,1.74,0.99,1.79z    M0.34,1.8c0.03,0.24-0.01,0.53,0.17,0.72c-0.04-0.15-0.1-0.3-0.09-0.46C0.42,1.96,0.46,1.84,0.34,1.8z M0.73,1.99   C0.77,1.99,0.81,2,0.85,2c-0.03,0.08-0.1,0.14-0.13,0.23c0.03,0.06,0.08,0.1,0.13,0.15C0.9,2.31,0.96,2.25,1,2.17   C0.98,2.11,0.94,2.06,0.92,2.01c0.06,0.02,0.11,0.06,0.15,0.1c0.04-0.12-0.09-0.2-0.13-0.3C0.87,1.87,0.8,1.93,0.73,1.99z    M4.47,1.82C4.43,1.88,4.39,1.93,4.35,1.99C4.37,2.01,4.4,2.03,4.42,2.05C4.45,2,4.5,1.97,4.51,1.91C4.5,1.88,4.48,1.85,4.47,1.82z    M4.48,2.08c0.05,0.04,0.1,0.08,0.16,0.12C4.66,2.17,4.68,2.14,4.7,2.12C4.65,2.06,4.61,2,4.56,1.94C4.53,1.99,4.51,2.03,4.48,2.08   z M0.49,2c0.03,0.14,0.04,0.29,0.07,0.43l0.03,0.02C0.69,2.3,0.5,2.16,0.52,2C0.51,2,0.5,2,0.49,2z M4.24,2.15   c0.02,0.02,0.04,0.04,0.05,0.06c0.02-0.04,0.05-0.08,0.07-0.11C4.35,2.08,4.33,2.06,4.32,2.04C4.29,2.08,4.26,2.11,4.24,2.15z    M4.82,2.14c0,0.04,0.01,0.08,0.02,0.12C4.89,2.2,4.91,2.13,4.91,2.05C4.88,2.08,4.85,2.11,4.82,2.14z M1.11,2.1   c0,0.04-0.03,0.09,0,0.13c0.03,0.03,0.07,0.06,0.11,0.09c0.02-0.02,0.04-0.05,0.06-0.07C1.22,2.19,1.17,2.14,1.11,2.1z M4.34,2.23   c0.07,0.03,0.14,0.09,0.22,0.1C4.56,2.32,4.58,2.3,4.58,2.29C4.54,2.23,4.5,2.17,4.42,2.14C4.39,2.17,4.37,2.2,4.34,2.23z    M1.42,2.15C1.4,2.18,1.38,2.22,1.37,2.25C1.4,2.27,1.42,2.32,1.46,2.31c0.02-0.04,0.03-0.08,0.05-0.13   C1.49,2.17,1.44,2.16,1.42,2.15z M4.99,2.16C4.96,2.25,4.96,2.35,4.96,2.44C5.02,2.36,5.04,2.25,4.99,2.16z M1.61,2.21   C1.6,2.24,1.59,2.26,1.57,2.28C1.64,2.3,1.71,2.32,1.79,2.35C1.79,2.32,1.8,2.28,1.81,2.26C1.74,2.25,1.68,2.23,1.61,2.21z    M0.93,2.43C0.95,2.45,0.98,2.48,1.01,2.5c0.05-0.05,0.1-0.1,0.14-0.15C1.12,2.31,1.08,2.27,1.04,2.23C1,2.29,0.96,2.36,0.93,2.43z    M4.69,2.44c0.08-0.05,0.07-0.13,0.05-0.21C4.68,2.28,4.64,2.36,4.69,2.44z M1.31,2.28C1.26,2.36,1.34,2.4,1.38,2.45   C1.4,2.43,1.41,2.4,1.42,2.38C1.39,2.34,1.35,2.31,1.31,2.28z M4.81,2.7c0.11-0.11,0.1-0.26,0.09-0.4C4.81,2.41,4.84,2.57,4.81,2.7   z M1.54,2.34c0.03,0.08,0.1,0.14,0.18,0.16c0.01-0.02,0.03-0.06,0.03-0.09C1.7,2.37,1.61,2.36,1.54,2.34z M0.69,2.4   c0.01,0.07,0.03,0.13,0.09,0.18c0.03-0.02,0.02-0.07,0.04-0.1C0.77,2.45,0.73,2.42,0.69,2.4z M1.19,2.42   C1.14,2.47,1.09,2.53,1.08,2.6c0.1,0.03,0.17-0.08,0.26-0.12C1.29,2.46,1.25,2.39,1.19,2.42z M1.53,2.51c0,0.04,0.01,0.07,0.02,0.1   C1.54,2.62,1.52,2.63,1.51,2.64c0.06,0,0.11,0.04,0.16,0.07C1.68,2.67,1.69,2.64,1.7,2.6C1.66,2.54,1.6,2.5,1.53,2.51z M4.69,2.6   C4.68,2.72,4.67,2.84,4.66,2.96c0.09-0.14,0.09-0.32,0.08-0.48C4.72,2.52,4.69,2.55,4.69,2.6z M0.6,2.51   c-0.02,0.1,0.02,0.21,0.1,0.28C0.68,2.69,0.66,2.59,0.6,2.51z M0.89,2.54c0,0.08,0.01,0.17,0.09,0.2C0.99,2.71,1,2.68,1,2.65   C0.98,2.6,0.93,2.58,0.89,2.54z M1.19,2.68c0.09,0.06,0.17,0.11,0.26,0.17c0-0.06,0-0.12,0-0.19C1.42,2.7,1.39,2.73,1.35,2.76   C1.32,2.67,1.42,2.6,1.43,2.52C1.34,2.55,1.27,2.62,1.19,2.68z M4.48,2.66c0.04-0.01,0.06-0.09,0.01-0.1   C4.45,2.57,4.43,2.66,4.48,2.66z M4.6,2.64c-0.04,0.01-0.06,0.07-0.03,0.1C4.63,2.77,4.67,2.65,4.6,2.64z M0.74,2.64   c0.01,0.14,0.04,0.3,0.17,0.38C0.85,2.89,0.85,2.73,0.74,2.64z M4.29,2.73C4.31,2.75,4.33,2.78,4.36,2.8   C4.38,2.76,4.39,2.71,4.4,2.67C4.36,2.69,4.33,2.71,4.29,2.73z M1.55,2.85c0.07,0.07,0.15,0.12,0.24,0.17   c0-0.05,0.01-0.11,0.01-0.16C1.76,2.84,1.73,2.82,1.69,2.8c0.01,0.02,0.04,0.05,0.06,0.07c-0.12,0.01-0.13-0.15-0.23-0.2   C1.53,2.73,1.51,2.8,1.55,2.85z M4.46,2.76C4.44,2.78,4.42,2.85,4.47,2.85C4.51,2.84,4.52,2.72,4.46,2.76z M0.94,2.79   c0.03,0.16,0.05,0.34,0.18,0.46C1.1,3.18,1.07,3.11,1.05,3.03C1.03,2.95,1.02,2.85,0.94,2.79z M3.37,2.8   C3.33,2.83,3.3,2.85,3.27,2.88C3.33,2.92,3.4,2.96,3.48,2.96c0,0.01,0,0.04,0.01,0.05c0.09,0.05,0.19,0.07,0.29,0.06   C3.65,2.96,3.5,2.9,3.37,2.8z M4.51,3.1c0.08-0.09,0.11-0.2,0.1-0.31C4.53,2.87,4.51,2.99,4.51,3.1z M1.19,2.83   c0.02,0.04,0.05,0.09,0.07,0.13C1.29,2.89,1.26,2.84,1.19,2.83z M4.31,3.02c0.04-0.06,0.07-0.13,0.09-0.2   C4.33,2.87,4.29,2.94,4.31,3.02z M4,3.06c0.08-0.03,0.14-0.09,0.16-0.17C4.1,2.93,3.98,2.96,4,3.06z M1.16,3.02   c0.02-0.03-0.01-0.08-0.03-0.09C1.07,2.94,1.11,3.04,1.16,3.02z M1.34,2.93c0.02,0.05,0.06,0.09,0.1,0.12   c0-0.02,0.01-0.07,0.01-0.1C1.41,2.94,1.38,2.93,1.34,2.93z M1.55,2.95c0,0.02,0,0.06,0,0.08C1.63,3.06,1.72,3.1,1.8,3.11   C1.73,3.04,1.64,3,1.55,2.95z M3.08,3C3.15,3.05,3.21,3.1,3.3,3.09C3.3,3.11,3.31,3.14,3.32,3.16C3.41,3.19,3.54,3.25,3.6,3.13   C3.53,3.09,3.44,3.05,3.35,3.05C3.32,2.93,3.16,2.9,3.08,3z M4.23,2.95C4.2,2.98,4.18,3.04,4.2,3.08C4.25,3.09,4.28,2.97,4.23,2.95   z M4.4,3.17C4.44,3.1,4.45,3.02,4.46,2.94C4.41,3.01,4.39,3.09,4.4,3.17z M1.26,3.02C1.23,3.05,1.28,3.13,1.32,3.11   C1.35,3.07,1.3,3,1.26,3.02z M4.28,3.28c0.07-0.06,0.08-0.16,0.07-0.25C4.28,3.09,4.27,3.18,4.28,3.28z M1.38,3.06   c0.03,0.07,0.06,0.15,0.14,0.19C1.5,3.16,1.45,3.1,1.38,3.06z M2.85,3.16c0.05,0.05,0.12,0.08,0.19,0.1   c0.05-0.05,0.1-0.09,0.15-0.14c-0.05-0.03-0.1-0.05-0.14-0.07C2.98,3.09,2.91,3.12,2.85,3.16z M3.89,3.33   c0.03-0.02,0.09-0.16,0.1-0.07c0,0.06-0.02,0.12-0.03,0.18c0.1,0,0.14-0.1,0.14-0.19c-0.01,0-0.03-0.01-0.05-0.02   c0.01-0.07,0.1-0.11,0.09-0.19C4.03,3.05,4,3.18,3.94,3.26c0-0.07,0-0.14,0-0.21C3.86,3.11,3.91,3.24,3.89,3.33z M1.13,3.07   C1.15,3.19,1.2,3.3,1.31,3.37C1.28,3.25,1.24,3.14,1.13,3.07z M3.72,3.2c0.01,0.01,0.04,0.04,0.06,0.05   C3.76,3.3,3.73,3.34,3.71,3.39c0.1-0.03,0.13-0.14,0.12-0.24C3.79,3.17,3.76,3.18,3.72,3.2z M4.14,3.38   C4.2,3.31,4.22,3.22,4.21,3.13C4.16,3.2,4.15,3.3,4.14,3.38z M3.15,3.17C3.13,3.21,3.11,3.25,3.09,3.29   C3.14,3.32,3.2,3.35,3.25,3.38c0.07-0.04,0.13-0.08,0.2-0.12C3.36,3.21,3.26,3.18,3.15,3.17z M1.34,3.2   c0.01,0.08,0.04,0.15,0.08,0.22C1.43,3.34,1.39,3.26,1.34,3.2z M1.46,3.26c0.01,0.09,0.03,0.2,0.13,0.23   C1.58,3.4,1.54,3.32,1.46,3.26z M1.7,3.27c0.04,0.06,0.1,0.08,0.17,0.05C1.81,3.3,1.75,3.28,1.7,3.27z M2.83,3.43   c0.05,0.02,0.1,0.04,0.15,0.05c0.07,0.01,0.13-0.05,0.18-0.09c-0.05-0.02-0.1-0.04-0.15-0.05C2.94,3.34,2.89,3.39,2.83,3.43z    M3.56,3.47c0.05-0.03,0.08-0.07,0.09-0.13C3.6,3.36,3.57,3.41,3.56,3.47z M3.81,3.49c0.03-0.01,0.07-0.01,0.1-0.02   c0-0.02-0.01-0.07-0.02-0.09C3.86,3.42,3.83,3.46,3.81,3.49z M1.63,3.42c0.02,0.09,0.09,0.14,0.17,0.16   C1.79,3.54,1.77,3.49,1.76,3.45C1.71,3.44,1.67,3.43,1.63,3.42z M3.64,3.58c0.07-0.02,0.13-0.07,0.13-0.15   C3.71,3.48,3.67,3.53,3.64,3.58z M2.55,3.5c0.09,0.11,0.26,0.1,0.37,0.02C2.88,3.5,2.83,3.47,2.78,3.46   C2.7,3.47,2.63,3.49,2.55,3.5z M3.35,3.69c0.08-0.05,0.13-0.14,0.12-0.24C3.42,3.53,3.38,3.61,3.35,3.69z M2.1,3.5   C2.08,3.53,2.06,3.55,2.03,3.58c0.05,0.05,0.09,0.1,0.14,0.15c0.1-0.02,0.19-0.04,0.29-0.06C2.34,3.62,2.22,3.55,2.1,3.5z    M3.16,3.76c0.11-0.03,0.15-0.13,0.16-0.24C3.24,3.58,3.19,3.67,3.16,3.76z M3.57,3.54C3.53,3.55,3.49,3.59,3.5,3.63   C3.55,3.65,3.62,3.56,3.57,3.54z M2.87,3.84c0.09-0.02,0.15-0.09,0.17-0.18C2.95,3.68,2.89,3.75,2.87,3.84z M2.74,3.83   C2.7,3.76,2.64,3.82,2.6,3.85c0.07,0,0.14,0.02,0.2-0.02c0.02-0.03,0.03-0.07,0.04-0.1C2.81,3.76,2.77,3.8,2.74,3.83z M2.39,3.83   C2.46,3.85,2.53,3.85,2.58,3.8C2.52,3.8,2.45,3.81,2.39,3.83z"></path>
</g>
</svg>