<svg xmlns="http://www.w3.org/2000/svg" xmlns:xlink="http://www.w3.org/1999/xlink" id="Layer_1" x="0px" y="0px" viewBox="0 0 550.3 121.27" style="enable-background:new 0 0 550.3 121.27;" xml:space="preserve">
<style type="text/css">
	.st0{fill:#F4DBA8;}
</style>
<g>
	<path class="st0" d="M68.56,104.37c0.23-2.39-0.79-4.68-1.84-6.77c0.08-0.2,0.26-0.6,0.34-0.8c-0.79-2.33-1.17-5.06-3.13-6.75   c-1.42-0.6-3.06,0.13-3.35,1.69c-0.44,0.05-1.31,0.15-1.75,0.2c-2.03,2.12-2.3,5.29-3.01,8.03c-0.89,2.08-1.37,4.29-1.85,6.5   c0.11,0.42,0.23,0.85,0.34,1.28c-0.38,0.01-1.12,0.03-1.49,0.03c0.29,2.28-0.82,4.37-1.08,6.59c-0.24,2.06-0.86,4.04-1.42,6.03   c0.83,0.13,1.67,0.26,2.5,0.38c0.55-1.4,1.18-2.77,1.83-4.12c1.07-2.2,1.23-4.7,2.06-6.98c0.26-0.66,0.73-1.5,1.55-1.46   c2.2-0.01,4.4,0.35,6.61,0.3l0.01-1.09c0.02,0.2,0.05,0.59,0.06,0.8c0.4,0.01,1.2,0.02,1.6,0.03c1.07,1.84,1.14,4.07,1.9,6.04   c0.75,1.87,0.94,3.89,1.19,5.88c0.5,0.06,1.49,0.19,1.99,0.25c0.2-0.38,0.62-1.12,0.83-1.5C71.54,114.01,70.38,109.06,68.56,104.37   z M57.39,105.77c0.26-0.42,0.75-1.26,1.01-1.69c-0.17-0.29-0.51-0.89-0.68-1.19c0.59-1.07,1.11-2.18,1.61-3.28   c-0.1-0.34-0.29-1.03-0.4-1.38c1.01-2.06,1.79-4.24,3.09-6.16c2.52,4,2.52,8.96,4.08,13.35C63.2,105.63,60.29,105.66,57.39,105.77z   "></path>
	<path class="st0" d="M102.7,106.81c-0.17,4.37-0.93,8.82-3.09,12.69c-0.52,0.92-1.64,1.16-2.48,1.67   c-2.94-3.78-5.14-8.14-6.42-12.75c-0.84,1.88-0.64,4-1.17,5.94c-1.43,2.39-2.47,5.35-5.18,6.59c-0.93,0.21-1.97-0.03-2.72-0.61   c-1.31-2.91-0.69-6.2-1.79-9.16c-1.05-3.64-0.04-7.6-1.63-11.1c-0.63-2.45-1.25-5.2-0.09-7.59c-0.48-0.5-0.77-1.09-0.86-1.74   c0.84-0.58,1.85-0.89,2.86-0.99c0.91,1.1,0.57,2.57,0.65,3.87c-0.08,5.06,1.21,9.99,1.82,14.98c0.23,3.2,1,6.33,1.6,9.47   c1.27-3.55,3.98-6.95,3.03-10.91c0.23-0.33,0.68-0.97,0.91-1.3c-0.05-1.14-0.08-2.28-0.15-3.4c0.88-0.91,1.96-1.58,3.07-2.18   c0.4,1.09,0.7,2.2,0.92,3.34c1.14,1.83,2.36,3.73,2.21,6c0.76,2.83,2.34,5.32,3.3,8.08c1.61-3.22,1.91-6.87,2.52-10.37   c0.96-5.94,0.24-11.96,0.06-17.92c0.67,0.31,1.34,0.63,2.01,0.94c0.3,0.74,0.62,1.48,0.96,2.21c0.11,0.9,0.24,1.8,0.38,2.71   C102.61,99.09,103.61,103.01,102.7,106.81z"></path>
	<path class="st0" d="M129.53,112.15c-0.86-2.6-0.93-5.51-2.6-7.79c0.15-0.47,0.3-0.94,0.45-1.4c-0.63-1.72-1.16-3.47-1.82-5.18   c-0.17-2.76-1.04-5.63-2.91-7.71c-0.96-0.32-1.95,0.04-2.92,0.1c-0.07,0.4-0.22,1.19-0.29,1.58c-0.79,0.03-1.56,0.15-2.3,0.35   c-1.52,2.32-2.26,5.04-2.54,7.78c-1.39,2.6-1.92,5.61-1.88,8.55c-0.3-0.26-0.89-0.77-1.19-1.02c0.19,2.64-1.02,5.04-1.26,7.62   c-0.22,1.72-0.86,3.36-1.17,5.07c0.45,1,1.51,0.62,2.37,0.64c0.93-2.58,2.48-4.92,2.96-7.65c0.45-1.6,0.56-3.43,1.74-4.69   c2.48-0.47,5.02,0.32,7.54,0.13c-0.01-0.26-0.03-0.79-0.03-1.06l0.12,0.61c0.4,0.11,1.18,0.33,1.58,0.44   c1.13,3.86,2.51,7.68,2.9,11.71c0.5,0.05,1.51,0.14,2.02,0.19c0.19-0.38,0.57-1.15,0.77-1.53   C130.69,116.62,130.25,114.34,129.53,112.15z M116.11,105.82c0.2-0.45,0.62-1.34,0.82-1.79c-0.15-0.29-0.43-0.86-0.58-1.15   c0.59-1.12,1.13-2.25,1.65-3.4c-0.19-0.23-0.56-0.7-0.73-0.94c1.18-2.04,2.04-4.23,3.04-6.36c0.68,0.71,1.49,1.41,1.67,2.45   c0.97,3.57,1.69,7.21,2.73,10.77C121.84,105.64,118.97,105.61,116.11,105.82z"></path>
	<path class="st0" d="M153.97,118.34c-0.28,0.77-0.59,1.53-0.92,2.28c-1.21-0.06-1.94-1.23-2.76-1.96   c-3.2-3.71-6.77-7.12-10.67-10.08c-0.98,3.83,0.24,7.75-0.31,11.62c-0.96,0.14-1.93,0.27-2.89,0.38   c0.99-10.21-0.13-20.46,0.24-30.69c0.79,0.17,1.57,0.36,2.35,0.6c0.34,0.64,0.25,1.41,0.36,2.13c0.2,3.47-0.44,6.94-0.12,10.42   c3.06-0.75,4.73-3.67,7.46-5.02c1.91-2.92,4.13-5.63,5.97-8.61c0.49,0.71,1.6,1.39,1.05,2.41c-1.14,3.2-3.59,5.69-5.76,8.23   c-1.95,2.32-4.64,3.83-6.77,5.96c2.55,3.32,6.55,5.13,8.9,8.63C151.39,115.85,152.79,116.98,153.97,118.34z"></path>
	<path class="st0" d="M176.1,119.46c-0.65,0.34-1.3,0.68-1.95,1.03c-3.57,0.02-7.17,0.11-10.74-0.08c-0.3,0.17-0.9,0.5-1.2,0.67   c-0.93-0.28-1.87-0.5-2.76-0.88c-0.38-2.59,0.16-5.2,0.14-7.79c0.11-7.21-0.13-14.41,0.04-21.61c1.21-1.19,3.06-0.55,4.58-0.72   c3.8-0.22,7.62-0.18,11.39,0.49c-0.4,0.69-0.79,1.39-1.17,2.09c-3.95,0.37-7.86-0.52-11.81-0.38c-0.34,4.08,0.3,8.2-0.31,12.27   c2.99,0.22,5.99,0.14,8.95-0.29c1.2-0.08,2.41-0.15,3.62-0.2c0.01,0.54,0.04,1.64,0.06,2.19c-4.16,1.03-8.44,0.8-12.67,1.16   c0.22,3.49,0.89,7,0.27,10.5c4.42,0.14,8.85,0.04,13.26-0.29C175.88,118.07,176.03,119,176.1,119.46z"></path>
	<path class="st0" d="M212.61,108.75c0.22-1.81-1.39-3.61-3.05-4.03c-0.71,0.71-0.52,1.72-0.55,2.63c-0.59,1.16-1.16,2.32-1.77,3.46   c-0.83-1.83-1.49-3.8-2.93-5.27c-0.38-0.58-1.09-1.03-1.17-1.75c1.13-2.19,3.8-3.39,4.19-5.95c0.75-2.72-1.78-4.84-3.68-6.31   c-2.08-1.65-4.81-1.19-7.13-0.4c-0.89,1.19-0.66,2.68-0.49,4.05c0.12,2.97,1.61,5.64,2.99,8.2c-3.53,3.7-4.74,9.35-3.56,14.26   c0.36,2.28,3.01,3.27,5.05,3.18c2.67-0.87,4.54-3.08,6.29-5.15c0.93,1.72,1.69,3.86,3.94,4.12c0.22-0.4,0.68-1.2,0.91-1.6   c-0.9-1.73-1.97-3.37-2.67-5.18c0.47-1.12,1.14-2.12,1.75-3.15C211.43,109.61,212.82,109.95,212.61,108.75z M199.01,92.47   c2.01,0.38,4.7,0.43,5.53,2.72c1.6,2.55-1.53,4.71-2.75,6.71C199.3,99.45,198.56,95.85,199.01,92.47z M199.76,118.81   c-0.98-1.07-2.56-2.06-2.13-3.74c-0.23-3.52,1.1-6.87,3.05-9.73c1.97,2.37,3.05,5.27,4.79,7.79   C203.85,115.27,202.19,117.5,199.76,118.81z"></path>
	<path class="st0" d="M242.18,93.16c0.1,5.57-0.2,11.15,0.08,16.73c0.02,3.27-0.44,6.54-0.27,9.83c-0.81,0.44-1.65,0.91-2.6,0.8   c-1.36-3.76-0.32-7.88-0.36-11.78c-0.22-5.09,0.09-10.17,0.18-15.26c-2.68,0.21-5.37,0.24-8.05,0.19c0.2-0.77,0.41-1.53,0.63-2.28   c2.96-0.45,5.95-1.1,8.94-0.66c3.13,0.47,6.29-0.04,9.43,0.22c1,0.47,0.86,1.72,1.21,2.6C248.29,93.51,245.25,92.79,242.18,93.16z"></path>
	<path class="st0" d="M273.37,120.14c-0.68,0.34-1.36,0.66-2.05,0.94c-0.24-4.4-0.05-8.8-0.58-13.17   c-3.56,0.25-7.09-0.63-10.65-0.17c-0.17,1.56-0.46,3.13-0.26,4.7c0.41,2.13-0.36,4.26,0.06,6.39c-0.19,0.72-0.38,1.44-0.58,2.16   c-0.83-0.48-1.65-0.97-2.47-1.46c-0.31-4.84,0.15-9.68-0.11-14.52c0.09-0.77,0.15-1.53,0.19-2.29c0.86-4.06-0.18-8.18-0.17-12.27   c1.14-0.23,2.29-0.42,3.45-0.57c-0.45,4.36,0.24,8.7-0.03,13.07c-0.04,0.87,0.73,1.47,1.14,2.2c1.61,0.03,3.21,0.2,4.8,0.47   c1.24-0.79,2.74-0.63,4.12-0.91c0.54-1.16,0.61-2.48,0.58-3.73c-0.1-3.72-0.17-7.44-0.24-11.15c1.03-0.1,2.08-0.18,3.13-0.23   c-0.07,2.73,0.54,5.53-0.47,8.16c1.76,5.41,0.49,11.15,1.01,16.71C274.45,116.39,274.08,118.36,273.37,120.14z"></path>
	<path class="st0" d="M290.67,118.15c-0.22,0.74-0.45,1.49-0.66,2.24c-2.37,0.4-4.79,0.69-7.18,0.45c-0.79-0.57-0.71-1.69-1.05-2.5   c0.57-0.03,1.73-0.07,2.3-0.1c-0.29-4.4-0.11-8.81-0.05-13.22c-0.02-2.43,0.07-4.91,1.09-7.14c-0.31,0.11-0.94,0.32-1.25,0.43   c0.2-1.68,0.61-3.32,0.75-5c-0.62-1.29-2.5-0.5-3.64-0.82c0.22-0.73,0.45-1.47,0.68-2.2c2.48-0.78,5.09-0.41,7.61-0.08   c1.01,0.31,0.84,1.61,1.19,2.41c-1.01-0.01-2.03-0.02-3.04-0.03c0.06,8.39-0.57,16.79-0.3,25.18   C288.27,118.14,289.48,118.07,290.67,118.15z"></path>
	<path class="st0" d="M317.04,100.05c0.98,6.17,0.86,12.45,0.79,18.68c-0.62,1.07-1.61,2.33-3.01,2.12   c-1.47-0.56-2.48-1.83-3.57-2.88c-1.9-1.61-1.97-4.35-3.57-6.19c-3.52-4.82-4.73-10.79-7.6-15.96c-0.11,6.38,0.13,12.77,0.47,19.14   c-0.02,1.03-0.34,2.04-0.64,3.03c0.17,0.75,0.34,1.5,0.47,2.28c-0.86,0.47-1.86,0.47-2.79,0.61c-1.24-5.48,0.24-11.14-0.47-16.68   c0.24-4.58-0.64-9.22,0.86-13.67c0.82-0.22,1.63-0.45,2.46-0.68c1.16,1.63,2.34,3.34,2.71,5.36c0.2,1.31,0.84,2.48,1.68,3.51   c0.75,3.04,2.83,5.48,3.82,8.42c1.33,2.54,2.48,5.16,3.77,7.72c0.34,0.95,1.32,1.3,2.13,1.77c0.43-8.54-0.99-17.09-0.06-25.61   c0.29-0.68,0.95-1.1,1.6-1.38c0.71,0.34,1.37,0.79,2.06,1.22c-0.37,1.1-0.77,2.21-1.22,3.29c0.41,0.29,0.82,0.59,1.24,0.89   C317.75,96.68,317.44,98.37,317.04,100.05z"></path>
	<path class="st0" d="M339.38,116.09c1.35,1.35,2.31,3.06,1.07,4.88c-2.85-1.72-4.45-4.75-7.07-6.72c-0.67-0.59-1.21-1.31-1.76-2   c-1.68-0.94-2.81-2.57-4.49-3.5c-1.37,3.64,0.2,7.59-0.48,11.36c-0.93,0.19-1.86,0.37-2.79,0.54c0.75-10.23-0.19-20.48,0.22-30.71   c0.86,0.17,1.71,0.36,2.57,0.55c0.31,4.19-0.29,8.37,0.04,12.55c3.02-0.87,4.73-3.68,7.4-5.14c1.85-2.66,3.8-5.23,5.52-7.97   c0.34-0.01,1.03-0.03,1.37-0.03c0.64,1.54-0.36,3-1.09,4.3c-1.23,2.12-2.92,3.89-4.49,5.74c-1.95,2.37-4.7,3.86-6.82,6.06   c2.59,3.33,6.65,5.14,8.92,8.74C337.98,115.38,338.74,115.66,339.38,116.09z"></path>
	<path class="st0" d="M369.82,102.64c1.3-1.23,2.76-2.46,3.36-4.21c0.49-1.99,0.2-4.18-0.68-6.01c-1.35-1.65-3.73-1.69-5.66-2.13   c-2.41-0.77-4.84-0.04-7.22,0.43c0.16,1.9,0.45,3.82,0.25,5.74c-0.5,3.84,0.38,7.68,0.05,11.53c0.28,4.01-0.67,7.97-0.33,11.97   c0.82,0.2,1.65,0.41,2.48,0.63c0.22-0.09,0.64-0.27,0.86-0.36c1.33,1.27,3.2,1.1,4.88,0.85c3.06-0.13,5.6-1.95,7.93-3.76   c1.54-1.98,2.39-4.37,3.5-6.59C378.42,106.24,374.55,102.46,369.82,102.64z M362.88,92.82c2.48,0.09,5.37-0.58,7.47,1.09   c1.05,1.79,0.59,4.28-0.75,5.82c-1.74,2.18-4.47,3.08-6.88,4.29C362.85,100.29,363.1,96.56,362.88,92.82z M376.28,110.55   c-1.05,3.15-3.8,5.45-6.58,7.1c-2.34,1.4-5.26,1-7.47-0.45c0.67-3.68-0.32-7.79,1.97-11.03c2.6-0.57,5.39-1.84,8-0.61   C374.15,106.47,376.92,107.94,376.28,110.55z"></path>
	<path class="st0" d="M395.42,118.18c-0.34,0.73-0.66,1.49-1.07,2.2c-2.2,0.55-4.51,0.63-6.76,0.47c-1.05-0.41-0.89-1.67-1.14-2.55   c0.57-0.01,1.72-0.04,2.3-0.05c-0.47-4.42-0.03-8.86-0.13-13.29c0.07-2.37,0.1-4.83,1.07-7.04c-0.28,0.09-0.85,0.27-1.14,0.36   c0.19-1.8,0.61-3.56,0.71-5.36c-1.2-0.33-2.45-0.36-3.67-0.47c0.23-0.75,0.47-1.48,0.71-2.22c2.62-0.73,5.37-0.37,8,0.08   c0.29,0.75,0.54,1.51,0.77,2.28c-0.75,0-2.25-0.01-2.99-0.01c0.11,8.41-0.73,16.81-0.31,25.21   C392.97,118.12,394.2,118.08,395.42,118.18z"></path>
	<path class="st0" d="M421.47,110.53c-0.08,2.88-1.75,5.35-3.27,7.68c-2.71,1.97-6.21,3.09-9.54,2.26c-2.84-0.24-5.09-2.49-6.1-5.04   c-1.49-5.16-0.96-10.61-0.07-15.83c0.76-2.56,2.19-4.88,3.4-7.24c3.22-2.11,7.09-3.54,11-2.97c0.42,0.69,0.81,1.41,1.17,2.15   c-2.46,0.39-5.11,0.03-7.36,1.29c-2.2,1.21-4.37,3.01-4.93,5.57c-1.45,4.93-1.7,10.26-0.63,15.29c0.45,3.54,4.89,5.26,7.93,3.94   c4.08-1.47,5.78-5.93,6.93-9.74c-0.66-0.05-1.97-0.15-2.63-0.2c-2.23,0.4-4.49,0.81-6.76,0.51c-0.01-0.9,0-1.8,0.01-2.69   c3.68-0.76,7.47-0.63,11.2-0.54C422.66,106.78,421.59,108.67,421.47,110.53z"></path>
	<path class="st0" d="M447.63,110.5c-0.1,2.88-1.72,5.36-3.24,7.69c-2.71,1.99-6.22,3.11-9.55,2.28c-2.86-0.23-5.13-2.51-6.13-5.07   c-1.35-4.69-0.91-9.64-0.31-14.42c0.24-2.51,1.66-4.65,2.71-6.87c0.47-0.81,0.69-1.92,1.69-2.25c3.08-1.79,6.64-3.01,10.25-2.48   c0.43,0.7,0.82,1.41,1.19,2.15c-2.45,0.41-5.11,0.03-7.35,1.28c-1.56,0.77-2.77,2.06-4.07,3.18c-2.29,5.53-2.74,11.81-1.53,17.65   c0.42,3.59,4.91,5.3,7.98,3.98c4.05-1.49,5.78-5.9,6.89-9.72c-0.66-0.06-1.97-0.16-2.62-0.21c-2.2,0.19-4.55,1.17-6.7,0.31   c-0.1-0.81-0.17-1.62-0.2-2.43c3.61-0.9,7.33-0.56,11.01-0.71C449.21,106.39,447.64,108.64,447.63,110.5z"></path>
	<path class="st0" d="M491.06,113.62c-1.62-2.66-3.82-4.91-6.04-7.07c0.96-0.67,2.07-1.1,3.18-1.47c2.44-1.05,4.13-3.04,5.15-5.46   c0.26-2.2,0.94-4.84-0.84-6.6c-3.82-4.68-10.61-2.86-15.84-2.9c0.01,2.64,0,5.29-0.29,7.92c-0.44,4,0.97,7.93,0.42,11.93   c0.04,3.66-0.25,7.33,0.13,10.98c0.86-0.24,2.3,0.4,2.81-0.54c-0.1-4.68,0.33-9.4-0.27-14.08c3.14,0.91,5.35,3.46,7.19,6.01   c1.74,2.51,3.81,4.83,5.14,7.61c0.26,0.2,0.79,0.59,1.05,0.79c0.73-0.2,1.48-0.4,2.23-0.58   C495.08,117.27,492.3,115.91,491.06,113.62z M482.15,104.36c-0.81-0.2-1.61-0.4-2.42-0.57c-0.63-3.66-0.02-7.35,0.54-10.97   c2.62-0.8,5.58-0.52,8.1,0.56c1.31,0.49,2.29,1.71,2.51,3.1c-0.14,1.56-1,2.92-1.48,4.38   C487.35,102.67,484.86,103.97,482.15,104.36z"></path>
	<path class="st0" d="M470.96,119.46c-0.66,0.34-1.3,0.69-1.95,1.04c-3.57,0-7.15,0.13-10.71-0.1c-0.29,0.16-0.87,0.48-1.17,0.63   c-0.98-0.24-1.95-0.48-2.91-0.71c-0.03-5.19,0.53-10.37,0.3-15.55c-0.32-4.65,0.11-9.31-0.01-13.95c1.19-1.22,3.06-0.55,4.58-0.73   c3.78-0.21,7.6-0.18,11.35,0.49c-0.39,0.68-0.77,1.37-1.14,2.06c-3.96,0.4-7.87-0.5-11.81-0.36c-0.3,4.09,0.29,8.2-0.3,12.29   c2.62,0.21,5.24,0.04,7.86-0.1c1.51-0.25,3.03-0.36,4.56-0.5c0.1,0.74,0.21,1.49,0.33,2.25c-4.22,1.06-8.57,0.84-12.87,1.19   c0.34,3.49,0.94,7.01,0.4,10.51c4.39,0.1,8.8,0.03,13.17-0.3C470.73,118.08,470.88,119,470.96,119.46z"></path>
	<path class="st0" d="M527.84,0.61c-3.57-0.03-7.15-0.02-10.72-0.01c-7.51,17.59-14.99,35.19-22.48,52.8   c3.94,0.01,7.88-0.01,11.82,0.02c1.63-3.9,3.19-7.83,4.81-11.72c7.38,0.04,14.78-0.04,22.17,0.04c1.51,3.91,3.14,7.77,4.7,11.66   c4.05,0.01,8.1,0,12.15,0.01C542.81,35.81,535.32,18.21,527.84,0.61z M515.46,31.37c2.3-5.56,4.49-11.16,6.89-16.68   c2.28,5.56,4.61,11.1,6.81,16.69C524.58,31.33,520.02,31.36,515.46,31.37z"></path>
	<path class="st0" d="M490.12,44.88c-3.86,4.16-8.74,7.58-14.39,8.69c-9.02,2.01-19.16-0.02-25.89-6.57   c-10.07-9.43-10.9-26.65-2.15-37.22c10-12.45,30.99-13,42.02-1.65c-2.44,2.87-4.89,5.74-7.4,8.54c-3.33-2.92-7.28-5.51-11.81-5.84   c-4.64-0.51-9.46,1.31-12.54,4.83c-6.09,6.76-5.52,18.43,1.41,24.41c4.35,3.89,10.95,4.46,16.23,2.27   c2.69-1.08,4.93-2.98,7.09-4.88C485.15,39.93,487.63,42.4,490.12,44.88z"></path>
	<path class="st0" d="M431.47,53.38c-3.32,0.02-6.63,0.05-9.94-0.03c-8.36-11.03-16.69-22.08-25.2-33   c-0.14,11.02,0.03,22.04-0.09,33.06c-3.8-0.04-7.6-0.02-11.41-0.02c0.02-17.48-0.03-34.96,0.03-52.44   c3.58,0.03,7.16-0.01,10.75,0.04c8.14,10.68,16.21,21.41,24.43,32.03c0.03-10.68-0.03-21.38,0.03-32.06c3.8,0.01,7.6,0.01,11.39,0   C431.47,18.45,431.43,35.91,431.47,53.38z"></path>
	<path class="st0" d="M354.42,0.6c-3.58-0.01-7.16-0.02-10.74,0.01c-7.42,17.62-14.99,35.19-22.44,52.8   c3.97-0.02,7.95,0.03,11.92-0.04c1.49-3.91,3.15-7.75,4.68-11.64c7.38-0.04,14.76-0.03,22.14-0.01c1.56,3.89,3.18,7.76,4.72,11.66   c4.06,0.04,8.12,0.02,12.18,0.02C369.43,35.78,361.89,18.21,354.42,0.6z M342.03,31.34c2.32-5.55,4.56-11.13,6.87-16.68   c2.37,5.53,4.58,11.12,6.89,16.68C351.2,31.37,346.61,31.36,342.03,31.34z"></path>
	<path class="st0" d="M317.14,53.43c-12.56-0.06-25.12-0.01-37.68-0.03c-0.01-17.46,0.03-34.93-0.02-52.39   c3.87-0.07,7.74-0.03,11.6-0.04c0.01,13.94-0.01,27.88,0.02,41.82c8.71,0.01,17.41-0.04,26.11,0.03   C317.17,46.36,317.2,49.89,317.14,53.43z"></path>
	<path class="st0" d="M269.14,33.57c-1.4-3.78-5.02-6.1-8.6-7.55c2.15-1.53,4.33-3.24,5.41-5.73c2.14-4.8,1.44-11.06-2.5-14.75   c-3.42-3.41-8.44-4.52-13.12-4.56h-24.87c-0.26,8.44,0.17,16.88-0.06,25.32c0.17,9.03-0.1,18.07,0.09,27.1   c8.48-0.01,16.97,0.03,25.46-0.01c5.36-0.11,11.16-1.08,15.24-4.84C270.23,44.82,270.9,38.55,269.14,33.57z M236.74,11.14   c3.68,0.04,7.37,0,11.05,0.01c1.91,0.01,3.94,0.15,5.6,1.19c2.87,1.69,2.96,6.43,0.24,8.29c-1.9,1.3-4.28,1.46-6.5,1.51   c-3.47,0.01-6.94-0.02-10.4-0.01C236.73,18.46,236.69,14.8,236.74,11.14z M252.85,43.02c-5.36,0.42-10.75,0.08-16.14,0.19   c0.01-3.81,0.01-7.62,0.01-11.43c5.16,0.07,10.32-0.16,15.47,0.1c2.94,0.1,6.34,1.96,6.34,5.25   C258.95,40.43,255.91,42.87,252.85,43.02z"></path>
	<path class="st0" d="M194.98,0.58c-3.55,0.23-7.31-0.41-10.72,0.31c-7.62,17.44-14.93,35.02-22.44,52.52   c3.94-0.18,8.01,0.35,11.88-0.25c1.74-3.74,3.13-7.63,4.72-11.43c7.38-0.05,14.76-0.01,22.14-0.03c1.62,3.91,3.17,7.85,4.85,11.74   c4.02-0.07,8.05-0.02,12.08-0.03C209.99,35.79,202.51,18.17,194.98,0.58z M182.63,31.36c2.29-5.56,4.51-11.16,6.9-16.68   c2.3,5.55,4.56,11.11,6.82,16.68C191.78,31.35,187.21,31.34,182.63,31.36z"></path>
	<path class="st0" d="M144.9,34.74c4.3-1.77,8.27-4.88,9.91-9.37c2.27-6.24,1.67-14.12-3.18-19.01c-3.67-3.78-9.08-5.26-14.21-5.37   c-8.35-0.04-16.71,0.03-25.06-0.03c-0.08,17.48-0.01,34.96-0.04,52.45c3.86-0.01,7.72,0.01,11.57-0.02   c-0.03-5.58-0.04-11.16,0.01-16.73c2.97-0.02,5.95-0.01,8.93-0.03c3.76,5.55,7.52,11.1,11.17,16.72c4.56,0.1,9.12,0.03,13.68,0.04   C153.42,47.17,149.15,40.96,144.9,34.74z M143.78,21.82c-1.06,2.87-4.14,4.36-7.05,4.49c-4.28,0.2-8.58,0.03-12.87,0.06   c-0.03-4.99-0.01-9.98-0.01-14.97c3.87,0,7.74-0.05,11.62,0.01c2.43,0.03,5.06,0.53,6.87,2.29   C144.44,15.77,144.71,19.14,143.78,21.82z"></path>
	<path class="st0" d="M81.83,0.6c-3.59-0.01-7.17-0.03-10.75,0.01c-7.41,17.62-14.99,35.17-22.43,52.78   c3.93,0.03,7.86-0.03,11.78,0.04c1.69-3.87,3.22-7.81,4.81-11.71c7.38-0.02,14.76-0.04,22.15,0.01c1.56,3.89,3.18,7.76,4.72,11.66   c4.06,0.03,8.12,0.02,12.18,0.01C96.83,35.78,89.3,18.2,81.83,0.6z M69.44,31.35c2.3-5.57,4.54-11.16,6.88-16.72   c2.31,5.56,4.59,11.13,6.85,16.71C78.6,31.36,74.02,31.35,69.44,31.35z"></path>
	<path class="st0" d="M47.84,53.39c-4.65,0.02-9.31,0.01-13.96,0.01c-5.39-7.41-10.81-14.79-16.16-22.22   c-2.04,2.18-4.58,4.07-6.08,6.65c-0.08,5.18,0.22,10.38-0.11,15.57c-3.84,0.01-7.68,0.01-11.53,0C0.02,35.92-0.03,18.45,0.03,0.97   c3.85,0.01,7.69,0.01,11.54,0.01c0.14,7.57,0.04,15.15,0.14,22.72c7.04-7.58,14.05-15.19,21.13-22.73c4.65,0.02,9.31,0,13.96,0.01   c-7.03,7.45-14.17,14.81-21.27,22.21C32.91,33.29,40.43,43.3,47.84,53.39z"></path>
</g>
</svg>